<svg xmlns="http://www.w3.org/2000/svg" font-family="SauceCodePro Nerd Font, Source Code Pro, Courier" font-size="14" width="100%" viewBox="0 0 640 593.45" background-color="#282c34">
  <g id="background">
    <rect x="1" y="1" width="638" height="591.45" fill="#282c34" stroke="rgba(255,255,255,0.35)" stroke-width="1" rx="8"></rect>
  </g>
  <foreignObject id="body" y="0" width="100%" height="603.45" overflow="hidden">
    <svg width="540.88" height="593.45" font-family="monospace" font-variant-east-asian="full-width" fill="#cccccc">
      <g>
        <text x="10" y="24.55" style="white-space:pre">[stateSignal:8] validation failed with no valid suggestion:  {</text>
        <text x="10" y="43.55" style="white-space:pre">  value: </text>
        <text x="85.61" y="43.55" font-weight="bold">null</text>
        <text x="119.22" y="43.55">,</text>
        <text x="10" y="62.55" style="white-space:pre">  validity: {</text>
        <text x="10" y="81.55" style="white-space:pre">    type: </text>
        <text x="94.01" y="81.55" fill="#11bc79">'must be a number'</text>
        <text x="245.24" y="81.55">,</text>
        <text x="10" y="100.55" style="white-space:pre">    step: </text>
        <text x="94.01" y="100.55" fill="#7f7f7f">undefined</text>
        <text x="169.63" y="100.55">,</text>
        <text x="10" y="119.55" style="white-space:pre">    valid: </text>
        <text x="102.42" y="119.55" fill="#DAA520">false</text>
        <text x="144.42" y="119.55">,</text>
        <text x="10" y="138.55" style="white-space:pre">    validSuggestion: </text>
        <text x="186.43" y="138.55" font-weight="bold">null</text>
        <text x="10" y="157.55" style="white-space:pre">  }</text>
        <text x="10" y="176.55">}</text>
        <text x="10" y="195.55" style="white-space:pre">[stateSignal:8] validation failed with no valid suggestion: </text>
        <text x="10" y="214.55" style="white-space:pre">[stateSignal:8] validation failed with no valid suggestion:  {</text>
        <text x="10" y="233.55" style="white-space:pre">  value: </text>
        <text x="85.61" y="233.55" font-weight="bold">null</text>
        <text x="119.22" y="233.55">,</text>
        <text x="10" y="252.55" style="white-space:pre">  validity: {</text>
        <text x="10" y="271.55" style="white-space:pre">    type: </text>
        <text x="94.01" y="271.55" fill="#11bc79">'must be a number'</text>
        <text x="245.24" y="271.55">,</text>
        <text x="10" y="290.55" style="white-space:pre">    step: </text>
        <text x="94.01" y="290.55" fill="#7f7f7f">undefined</text>
        <text x="169.63" y="290.55">,</text>
        <text x="10" y="309.55" style="white-space:pre">    valid: </text>
        <text x="102.42" y="309.55" fill="#DAA520">false</text>
        <text x="144.42" y="309.55">,</text>
        <text x="10" y="328.55" style="white-space:pre">    validSuggestion: </text>
        <text x="186.43" y="328.55" font-weight="bold">null</text>
        <text x="10" y="347.55" style="white-space:pre">  }</text>
        <text x="10" y="366.55">}</text>
        <text x="10" y="385.55" style="white-space:pre">[stateSignal:8] validation failed with no valid suggestion: </text>
        <text x="10" y="404.55" style="white-space:pre">[stateSignal:8] validation failed with no valid suggestion:  {</text>
        <text x="10" y="423.55" style="white-space:pre">  value: </text>
        <text x="85.61" y="423.55" font-weight="bold">null</text>
        <text x="119.22" y="423.55">,</text>
        <text x="10" y="442.55" style="white-space:pre">  validity: {</text>
        <text x="10" y="461.55" style="white-space:pre">    type: </text>
        <text x="94.01" y="461.55" fill="#11bc79">'must be a number'</text>
        <text x="245.24" y="461.55">,</text>
        <text x="10" y="480.55" style="white-space:pre">    step: </text>
        <text x="94.01" y="480.55" fill="#7f7f7f">undefined</text>
        <text x="169.63" y="480.55">,</text>
        <text x="10" y="499.55" style="white-space:pre">    valid: </text>
        <text x="102.42" y="499.55" fill="#DAA520">false</text>
        <text x="144.42" y="499.55">,</text>
        <text x="10" y="518.55" style="white-space:pre">    validSuggestion: </text>
        <text x="186.43" y="518.55" font-weight="bold">null</text>
        <text x="10" y="537.55" style="white-space:pre">  }</text>
        <text x="10" y="556.55">}</text>
        <text x="10" y="575.55" style="white-space:pre">[stateSignal:8] validation failed with no valid suggestion: </text>
      </g>
    </svg>
  </foreignObject>
</svg>