<svg style="enable-background:new 0 0 100 100;" fill="#f1f1f1" xmlns="http://www.w3.org/2000/svg" viewBox="30.4 23.47 40.05 45.63">
    <path d="M32.5,69.1c-0.6,0-1.1-0.2-1.4-0.5c-0.7-0.6-0.7-1.5-0.7-1.8V41.1h4v24h9v4H32.9C32.8,69.1,32.6,69.1,32.5,69.1z"/>
    <path d="M67.8,69.1c-0.2,0-0.3,0-0.5,0c-0.1,0-0.1,0-0.2,0H56.4v-4h10v-23h4v24.7c0,0.6-0.3,1.2-0.7,1.7  C69.1,69,68.3,69.1,67.8,69.1z"/>
    <path  d="M68.4,44.1c-0.5,0-1-0.2-1.3-0.5L50,28.2L33.7,42.6c-0.8,0.7-2.1,0.7-2.8-0.2c-0.7-0.8-0.7-2.1,0.2-2.8L48.7,24  c0.8-0.7,1.9-0.7,2.7,0l18.4,16.6c0.8,0.7,0.9,2,0.1,2.8C69.5,43.8,68.9,44.1,68.4,44.1z"/>
    <path  d="M58.4,69.1h-4v-13h-8v13h-4v-15c0-1.1,0.9-2,2-2h12c1.1,0,2,0.9,2,2V69.1z"/>
</svg>